<?xml version="1.0" encoding="UTF-8"?>
<svg width="60px" height="59px" viewBox="0 0 60 59" version="1.1" xmlns="http://www.w3.org/2000/svg" xmlns:xlink="http://www.w3.org/1999/xlink">
    <title>logo</title>
    <g id="Page-1" stroke="none" stroke-width="1" fill="none" fill-rule="evenodd">
        <g id="Artboard" transform="translate(-19, -91)" stroke="#FFFFFF">
            <g id="logo" transform="translate(19.3295, 91)">
                <path d="M22.0576144,11.9620414 C22.0576144,20.7698187 22.0576144,26.2841421 22.0576144,28.5050117 C22.0576144,31.8363162 19.7432452,33.9650585 16.7080385,33.9650585 C13.6728318,33.9650585 11.5013957,32.2936995 11.5013957,29.2428346" id="Line" stroke-width="4" fill-rule="nonzero"></path>
                <line x1="52.0320804" y1="13.2095258" x2="22.0320804" y2="13.2095258" id="Line-2" stroke-width="2.5" stroke-linecap="square"></line>
                <line x1="35.0320804" y1="45.7095258" x2="7.03208042" y2="45.7095258" id="Line-2" stroke-width="2.5" stroke-linecap="square"></line>
                <path d="M29.5,2.5 C36.9558441,2.5 43.7058441,5.52207794 48.5918831,10.4081169 C53.4779221,15.2941559 56.5,22.0441559 56.5,29.5 C56.5,36.9558441 53.4779221,43.7058441 48.5918831,48.5918831 C43.7058441,53.4779221 36.9558441,56.5 29.5,56.5 C22.0441559,56.5 15.2941559,53.4779221 10.4081169,48.5918831 C5.52207794,43.7058441 2.5,36.9558441 2.5,29.5 C2.5,22.0441559 5.52207794,15.2941559 10.4081169,10.4081169 C15.2941559,5.52207794 22.0441559,2.5 29.5,2.5 Z" id="Oval" stroke-width="5"></path>
                <path d="M36.630088,24.7587226 C39.4195842,24.7587226 41.9449991,25.8893893 43.7730399,27.7174301 C45.6010807,29.5454709 46.7317474,32.0708858 46.7317474,34.860382 C46.7317474,37.6498782 45.6010807,40.1752931 43.7730399,42.0033339 C41.9449991,43.8313747 39.4195842,44.9620414 36.630088,44.9620414 C33.8405917,44.9620414 31.3151769,43.8313747 29.4871361,42.0033339 C27.6590953,40.1752931 26.5284285,37.6498782 26.5284285,34.860382 C26.5284285,32.0708858 27.6590953,29.5454709 29.4871361,27.7174301 C31.3151769,25.8893893 33.8405917,24.7587226 36.630088,24.7587226 Z" id="Oval" stroke-width="4"></path>
            </g>
        </g>
    </g>
</svg>