<?xml version="1.0" encoding="UTF-8"?>
<svg width="50px" height="49px" viewBox="0 0 50 49" version="1.1" xmlns="http://www.w3.org/2000/svg" xmlns:xlink="http://www.w3.org/1999/xlink">
    <title>logo</title>
    <g id="Page-1" stroke="none" stroke-width="1" fill="none" fill-rule="evenodd">
        <g id="Artboard" transform="translate(-19, -19)" stroke="#000000" stroke-width="5">
            <g id="logo" transform="translate(19.3295, 19)">
                <path d="M21.4356925,3.90253018 C21.4356925,14.1459279 21.4356925,20.5590565 21.4356925,23.141916 C21.4356925,27.0162052 18.7440935,29.4919212 15.2141645,29.4919212 C11.6842354,29.4919212 9.15886683,27.5481395 9.15886683,24" id="Line" fill-rule="nonzero"></path>
                <path d="M24.5,2.5 C30.5751322,2.5 36.0751322,4.96243388 40.0563492,8.94365081 C44.0375661,12.9248678 46.5,18.4248678 46.5,24.5 C46.5,30.5751322 44.0375661,36.0751322 40.0563492,40.0563492 C36.0751322,44.0375661 30.5751322,46.5 24.5,46.5 C18.4248678,46.5 12.9248678,44.0375661 8.94365081,40.0563492 C4.96243388,36.0751322 2.5,30.5751322 2.5,24.5 C2.5,18.4248678 4.96243388,12.9248678 8.94365081,8.94365081 C12.9248678,4.96243388 18.4248678,2.5 24.5,2.5 Z" id="Oval"></path>
                <path d="M31.5,21.216349 C33.709139,21.216349 35.709139,22.1117795 37.1568542,23.5594947 C38.6045695,25.00721 39.5,27.00721 39.5,29.216349 C39.5,31.425488 38.6045695,33.425488 37.1568542,34.8732032 C35.709139,36.3209185 33.709139,37.216349 31.5,37.216349 C29.290861,37.216349 27.290861,36.3209185 25.8431458,34.8732032 C24.3954305,33.425488 23.5,31.425488 23.5,29.216349 C23.5,27.00721 24.3954305,25.00721 25.8431458,23.5594947 C27.290861,22.1117795 29.290861,21.216349 31.5,21.216349 Z" id="Oval"></path>
            </g>
        </g>
    </g>
</svg>