<?xml version="1.0" encoding="UTF-8"?>
<svg width="513px" height="59px" viewBox="0 0 513 59" version="1.1" xmlns="http://www.w3.org/2000/svg" xmlns:xlink="http://www.w3.org/1999/xlink">
    <title>Artboard</title>
    <g id="Artboard" stroke="none" stroke-width="1" fill="none" fill-rule="evenodd">
        <g id="lockup" transform="translate(0.3295, 0)" stroke="#FFFFFF">
            <g id="Y" transform="translate(455.6705, 14.5)" stroke-linecap="square" stroke-width="4">
                <polygon id="Line-4" transform="translate(11.3252, 8.4886) scale(1, -1) translate(-11.3252, -8.4886)" points="22.6504953 16.9771943 11.4178989 0 0 16.9771943"></polygon>
                <line x1="11.3863037" y1="30.5027871" x2="11.3863037" y2="19.2371972" id="Line-6"></line>
            </g>
            <g id="H" transform="translate(417.6705, 14.9232)" stroke-linecap="square" stroke-width="4">
                <polyline id="Line-3" transform="translate(18.3135, 16.0187) scale(-1, 1) translate(-18.3135, -16.0187)" points="24.505723 14.0433594 12.1212392 14.0433594 12.1212392 32.0374714 12.1212392 0"></polyline>
                <polyline id="Line-3" points="12.3844839 14.0477723 2.14836549e-17 14.0477723 2.14836549e-17 32.0418843 2.14836549e-17 0.00441290417"></polyline>
            </g>
            <g id="P" transform="translate(382.5348, 12.9651)" stroke-width="4">
                <path d="M15.7769188,2 C18.452472,2 20.6334271,2.8925206 22.1543586,4.41345211 C23.7740667,6.03316025 24.625737,8.32740538 24.625737,10.8488182 C24.625737,13.3702311 23.7740667,15.6644762 22.1543586,17.2841843 C20.6334271,18.8051158 18.452472,19.6976364 15.7769188,19.6976364 L2,19.6976364 L2,2 Z" id="Oval"></path>
                <line x1="2.01685943" y1="32.1042187" x2="2.01685943" y2="2.96252863" id="Line-3" stroke-linecap="square"></line>
            </g>
            <g id="A" transform="translate(343.031, 14)" stroke-width="4">
                <path d="M10.9663955,21.1150183 C12.5702012,20.7075376 15.8576711,18.9875039 20.8288051,15.9549173 L22.1795564,15.0080916" id="Oval" transform="translate(16.573, 18.0616) scale(-1, 1) rotate(-330) translate(-16.573, -18.0616)"></path>
                <polygon id="Line-4" stroke-linecap="square" points="30 31 29.9879989 30.975152 15.02762 0 15 0 0.0377821361 30.9219169 0 31"></polygon>
            </g>
            <g id="R" transform="translate(304.6705, 12.5)" stroke-width="4">
                <path d="M15.7769188,2 C18.452472,2 20.6334271,2.8925206 22.1543586,4.41345211 C23.7740667,6.03316025 24.625737,8.32740538 24.625737,10.8488182 C24.625737,13.3702311 23.7740667,15.6644762 22.1543586,17.2841843 C20.6334271,18.8051158 18.452472,19.6976364 15.7769188,19.6976364 L2,19.6976364 L2,2 Z" id="Oval"></path>
                <line x1="2.01685943" y1="32.1042187" x2="2.01685943" y2="2.96252863" id="Line-3" stroke-linecap="square"></line>
                <path d="M10.9728212,24.9221123 C10.9614325,25.1658764 10.9311725,25.4251227 10.9311725,25.6717035 C10.9311725,31.3786459 15.8595156,30.8882092 25.7162017,24.2003934 L27.066953,23.2535677" id="Oval" transform="translate(18.9991, 26.4334) scale(-1, 1) rotate(-37) translate(-18.9991, -26.4334)"></path>
            </g>
            <g id="G" transform="translate(264.6705, 14.5)" stroke-width="4">
                <path d="M15.5,31 C24.0604136,31 31,24.0604136 31,15.5 C31,6.93958638 24.0604136,0 15.5,0 C6.93958638,0 0,6.93958638 0,15.5 C0,21.2069424 4.92834305,20.7165057 14.7850291,14.0286899" transform="translate(15.5, 15.5) scale(-1, -1) translate(-15.5, -15.5)"></path>
            </g>
            <g id="O" transform="translate(220.6705, 12.5)" stroke-width="4">
                <path d="M17.4737515,2 C21.74671,2 25.6151478,3.73195863 28.4153461,6.53215688 C31.2155443,9.33235512 32.9475029,13.200793 32.9475029,17.4737515 C32.9475029,21.74671 31.2155443,25.6151478 28.4153461,28.4153461 C25.6151478,31.2155443 21.74671,32.9475029 17.4737515,32.9475029 C13.200793,32.9475029 9.33235512,31.2155443 6.53215688,28.4153461 C3.73195863,25.6151478 2,21.74671 2,17.4737515 C2,13.200793 3.73195863,9.33235512 6.53215688,6.53215688 C9.33235512,3.73195863 13.200793,2 17.4737515,2 Z"></path>
            </g>
            <g id="T" transform="translate(189.7757, 14.9232)" stroke-linecap="square" stroke-width="4">
                <polyline id="Line-3" points="24.7689678 0 12.3844839 1.86607414e-14 12.3844839 28.917164"></polyline>
                <polyline id="Line-3" transform="translate(6.1922, 15.0869) scale(-1, 1) translate(-6.1922, -15.0869)" points="12.3844839 0 0 0 -1.75994101e-13 30.1738663"></polyline>
            </g>
            <g id="O" transform="translate(150.5886, 12.5)" stroke-width="4">
                <path d="M17.4737515,2 C21.74671,2 25.6151478,3.73195863 28.4153461,6.53215688 C31.2155443,9.33235512 32.9475029,13.200793 32.9475029,17.4737515 C32.9475029,21.74671 31.2155443,25.6151478 28.4153461,28.4153461 C25.6151478,31.2155443 21.74671,32.9475029 17.4737515,32.9475029 C13.200793,32.9475029 9.33235512,31.2155443 6.53215688,28.4153461 C3.73195863,25.6151478 2,21.74671 2,17.4737515 C2,13.200793 3.73195863,9.33235512 6.53215688,6.53215688 C9.33235512,3.73195863 13.200793,2 17.4737515,2 Z"></path>
            </g>
            <g id="H" transform="translate(117.139, 14.9694)" stroke-linecap="square" stroke-width="4">
                <polyline id="Line-3" transform="translate(18.3135, 16.0187) scale(-1, 1) translate(-18.3135, -16.0187)" points="24.505723 14.0433594 12.1212392 14.0433594 12.1212392 32.0374714 12.1212392 0"></polyline>
                <polyline id="Line-3" points="12.3844839 14.0477723 0 14.0477723 0 32.0418843 0 0.00441290417"></polyline>
            </g>
            <g id="P" transform="translate(81.5348, 12.9651)" stroke-width="4">
                <path d="M15.7769188,2 C18.452472,2 20.6334271,2.8925206 22.1543586,4.41345211 C23.7740667,6.03316025 24.625737,8.32740538 24.625737,10.8488182 C24.625737,13.3702311 23.7740667,15.6644762 22.1543586,17.2841843 C20.6334271,18.8051158 18.452472,19.6976364 15.7769188,19.6976364 L2,19.6976364 L2,2 Z" id="Oval"></path>
                <line x1="2.01685943" y1="32.1042187" x2="2.01685943" y2="2.96252863" id="Line-3" stroke-linecap="square"></line>
            </g>
            <g id="logo">
                <path d="M22.0576144,11.9620414 C22.0576144,20.7698187 22.0576144,26.2841421 22.0576144,28.5050117 C22.0576144,31.8363162 19.7432452,33.9650585 16.7080385,33.9650585 C13.6728318,33.9650585 11.5013957,32.2936995 11.5013957,29.2428346" id="Line" stroke-width="4" fill-rule="nonzero"></path>
                <line x1="52.0320804" y1="13.2095258" x2="22.0320804" y2="13.2095258" id="Line-2" stroke-width="2.5" stroke-linecap="square"></line>
                <line x1="35.0320804" y1="45.7095258" x2="7.03208042" y2="45.7095258" id="Line-2" stroke-width="2.5" stroke-linecap="square"></line>
                <path d="M29.5,2.5 C36.9558441,2.5 43.7058441,5.52207794 48.5918831,10.4081169 C53.4779221,15.2941559 56.5,22.0441559 56.5,29.5 C56.5,36.9558441 53.4779221,43.7058441 48.5918831,48.5918831 C43.7058441,53.4779221 36.9558441,56.5 29.5,56.5 C22.0441559,56.5 15.2941559,53.4779221 10.4081169,48.5918831 C5.52207794,43.7058441 2.5,36.9558441 2.5,29.5 C2.5,22.0441559 5.52207794,15.2941559 10.4081169,10.4081169 C15.2941559,5.52207794 22.0441559,2.5 29.5,2.5 Z" id="Oval" stroke-width="5"></path>
                <path d="M36.630088,24.7587226 C39.4195842,24.7587226 41.9449991,25.8893893 43.7730399,27.7174301 C45.6010807,29.5454709 46.7317474,32.0708858 46.7317474,34.860382 C46.7317474,37.6498782 45.6010807,40.1752931 43.7730399,42.0033339 C41.9449991,43.8313747 39.4195842,44.9620414 36.630088,44.9620414 C33.8405917,44.9620414 31.3151769,43.8313747 29.4871361,42.0033339 C27.6590953,40.1752931 26.5284285,37.6498782 26.5284285,34.860382 C26.5284285,32.0708858 27.6590953,29.5454709 29.4871361,27.7174301 C31.3151769,25.8893893 33.8405917,24.7587226 36.630088,24.7587226 Z" id="Oval" stroke-width="4"></path>
            </g>
        </g>
    </g>
</svg>