<?xml version="1.0" encoding="UTF-8"?>
<svg width="290px" height="59px" viewBox="0 0 290 59" version="1.1" xmlns="http://www.w3.org/2000/svg" xmlns:xlink="http://www.w3.org/1999/xlink">
    <title>Artboard</title>
    <g id="Artboard" stroke="none" stroke-width="1" fill="none" fill-rule="evenodd">
        <g id="logo" transform="translate(0.3295, 0)" stroke="#FFFFFF">
            <path d="M22.0576144,11.9620414 C22.0576144,20.7698187 22.0576144,26.2841421 22.0576144,28.5050117 C22.0576144,31.8363162 19.7432452,33.9650585 16.7080385,33.9650585 C13.6728318,33.9650585 11.5013957,32.2936995 11.5013957,29.2428346" id="Line" stroke-width="4" fill-rule="nonzero"></path>
            <line x1="52.0320804" y1="13.2095258" x2="22.0320804" y2="13.2095258" id="Line-2" stroke-width="2.5" stroke-linecap="square"></line>
            <line x1="35.0320804" y1="45.7095258" x2="7.03208042" y2="45.7095258" id="Line-2" stroke-width="2.5" stroke-linecap="square"></line>
            <path d="M29.5,2.5 C36.9558441,2.5 43.7058441,5.52207794 48.5918831,10.4081169 C53.4779221,15.2941559 56.5,22.0441559 56.5,29.5 C56.5,36.9558441 53.4779221,43.7058441 48.5918831,48.5918831 C43.7058441,53.4779221 36.9558441,56.5 29.5,56.5 C22.0441559,56.5 15.2941559,53.4779221 10.4081169,48.5918831 C5.52207794,43.7058441 2.5,36.9558441 2.5,29.5 C2.5,22.0441559 5.52207794,15.2941559 10.4081169,10.4081169 C15.2941559,5.52207794 22.0441559,2.5 29.5,2.5 Z" id="Oval" stroke-width="5"></path>
            <path d="M36.630088,24.7587226 C39.4195842,24.7587226 41.9449991,25.8893893 43.7730399,27.7174301 C45.6010807,29.5454709 46.7317474,32.0708858 46.7317474,34.860382 C46.7317474,37.6498782 45.6010807,40.1752931 43.7730399,42.0033339 C41.9449991,43.8313747 39.4195842,44.9620414 36.630088,44.9620414 C33.8405917,44.9620414 31.3151769,43.8313747 29.4871361,42.0033339 C27.6590953,40.1752931 26.5284285,37.6498782 26.5284285,34.860382 C26.5284285,32.0708858 27.6590953,29.5454709 29.4871361,27.7174301 C31.3151769,25.8893893 33.8405917,24.7587226 36.630088,24.7587226 Z" id="Oval" stroke-width="4"></path>
            <path d="M174.062312,14.0131818 C178.335271,14.0131818 182.203709,15.7451404 185.003907,18.5453386 C187.804105,21.3455369 189.536064,25.2139748 189.536064,29.4869332 C189.536064,33.7598917 187.804105,37.6283296 185.003907,40.4285278 C182.203709,43.2287261 178.335271,44.9606847 174.062312,44.9606847 C169.789354,44.9606847 165.920916,43.2287261 163.120718,40.4285278 C160.32052,37.6283296 158.588561,33.7598917 158.588561,29.4869332 C158.588561,25.2139748 160.32052,21.3455369 163.120718,18.5453386 C165.920916,15.7451404 169.789354,14.0131818 174.062312,14.0131818 Z" id="Oval" stroke-width="4"></path>
            <g id="Group-2" transform="translate(79.5348, 12.9651)" stroke-width="4">
                <path d="M15.7769188,2 C18.452472,2 20.6334271,2.8925206 22.1543586,4.41345211 C23.7740667,6.03316025 24.625737,8.32740538 24.625737,10.8488182 C24.625737,13.3702311 23.7740667,15.6644762 22.1543586,17.2841843 C20.6334271,18.8051158 18.452472,19.6976364 15.7769188,19.6976364 L2,19.6976364 L2,2 Z" id="Oval"></path>
                <line x1="2.01685943" y1="32.1042187" x2="2.01685943" y2="2.96252863" id="Line-3" stroke-linecap="square"></line>
            </g>
            <polyline id="Line-3" stroke-width="4" stroke-linecap="square" points="132.220632 28.9709857 119.836148 28.9709857 119.836148 46.9650976 119.836148 14.9276263"></polyline>
        </g>
        <polyline id="Line-3" stroke="#FFFFFF" stroke-width="4" stroke-linecap="square" points="222.874101 14.9232133 210.489617 14.9232133 210.489617 43.8403774"></polyline>
        <polyline id="Line-3" stroke="#FFFFFF" stroke-width="4" stroke-linecap="square" transform="translate(204.2974, 29.3818) scale(-1, 1) translate(-204.2974, -29.3818)" points="210.489617 14.9232133 198.105133 14.9232133 198.105133 43.8403774"></polyline>
        <g id="Group" transform="translate(120.1656, 14.9232)" stroke="#FFFFFF" stroke-linecap="square" stroke-width="4">
            <polyline id="Line-3" transform="translate(18.3135, 16.0187) scale(-1, 1) translate(-18.3135, -16.0187)" points="24.505723 14.0433594 12.1212392 14.0433594 12.1212392 32.0374714 12.1212392 0"></polyline>
            <polyline id="Line-3" points="12.3844839 14.0477723 2.14836549e-17 14.0477723 2.14836549e-17 32.0418843 2.14836549e-17 0.00441290417"></polyline>
        </g>
        <path d="M246.473751,14 C250.74671,14 254.615148,15.7319586 257.415346,18.5321569 C260.215544,21.3323551 261.947503,25.200793 261.947503,29.4737515 C261.947503,33.74671 260.215544,37.6151478 257.415346,40.4153461 C254.615148,43.2155443 250.74671,44.9475029 246.473751,44.9475029 C242.200793,44.9475029 238.332355,43.2155443 235.532157,40.4153461 C232.731959,37.6151478 231,33.74671 231,29.4737515 C231,25.200793 232.731959,21.3323551 235.532157,18.5321569 C238.332355,15.7319586 242.200793,14 246.473751,14 Z" id="Oval" stroke="#FFFFFF" stroke-width="4"></path>
    </g>
</svg>